<svg id="带电显示" xmlns="http://www.w3.org/2000/svg" width="100" height="316" viewBox="0 0 50 158">
  <defs>
    <style>
      .cls-1 {
        fill-rule: evenodd;
      }
    </style>
  </defs>
  <rect id="矩形_1" data-name="矩形 1" x="9" y="38" width="33" height="2"/>
  <rect id="矩形_1_拷贝" data-name="矩形 1 拷贝" x="9" y="26" width="33" height="2"/>
  <rect id="矩形_2" data-name="矩形 2" x="24" width="2" height="27"/>
  <rect id="矩形_2_拷贝" data-name="矩形 2 拷贝" x="24" y="116" width="2" height="25"/>
  <rect id="矩形_5" data-name="矩形 5" x="3" y="139" width="45" height="2"/>
  <rect id="矩形_5_拷贝" data-name="矩形 5 拷贝" x="13" y="148" width="24" height="2"/>
  <rect id="矩形_5_拷贝_2" data-name="矩形 5 拷贝 2" x="17" y="156" width="16" height="2"/>
  <rect id="矩形_3" data-name="矩形 3" x="24" y="40" width="2" height="27"/>
  <path id="椭圆_1_拷贝" data-name="椭圆 1 拷贝" class="cls-1" d="M347.375,268.559a25,25,0,1,1-25,25A25,25,0,0,1,347.375,268.559Zm-0.5,2c12.426,0,23.5,10.073,23.5,22.5s-11.074,23.5-23.5,23.5-22.5-11.074-22.5-23.5A22.5,22.5,0,0,1,346.875,270.559Z" transform="translate(-322.375 -201.562)"/>
  <path id="矩形_4" data-name="矩形 4" class="cls-1" d="M331.819,275.588l33.527,33.527-1.415,1.414L330.4,277Z" transform="translate(-322.375 -201.562)"/>
  <path id="矩形_4_拷贝" data-name="矩形 4 拷贝" class="cls-1" d="M330.4,309.131l32.548-32.548,1.4,1.4L331.8,310.534Z" transform="translate(-322.375 -201.562)"/>
</svg>
